<?xml version="1.0" encoding="UTF-8"?>
<!-- Generator: Adobe Illustrator 20.1.0, SVG Export Plug-In . SVG Version: 6.00 Build 0)  -->
<svg width="518.8" height="80" version="1.1" viewBox="0 0 518.8 80" xml:space="preserve" xmlns="http://www.w3.org/2000/svg">
<style type="text/css">
	.st0{fill:#FFFFFF;}
	.st1{fill:#599D20;}
	.st2{fill:#4F8C1D;}
	.st3{fill:#68AA30;}
	.st4{fill:#79BC41;}
	.st5{display:none;}
	.st6{display:inline;fill:none;stroke:#00FFFF;stroke-miterlimit:10;}
	.st7{display:inline;fill:none;stroke:#BE272D;stroke-miterlimit:10;}
	.st8{display:inline;}
	.st9{fill:none;stroke:#BE272D;stroke-miterlimit:10;}
	.st10{fill:#BE272D;}
</style>

<g transform="translate(-40.3,-40)">
	
		<path class="st0" d="m119.4 85.8-19.7 11.3v-22.9l-0.1 0.1-19.7 11.4-19.6-11.3-0.1-0.1 19.8-11.4 19.8 11.4 19.8-11.4-39.7-22.9-39.6 22.9v45.7l19.8 11.4v-22.9l19.8 11.4 19.8-11.4v22.9l19.8-11.4v-22.9zm-59.3 11.3"/>
	
	<path class="st0" d="m178.8 83.1v-0.1c5.2-1.3 8-4.7 8-9.6 0-6.9-5.1-11.1-12.9-11.1h-14.4v38.1h4.6v-15.9h8.1c5.9 0 8.6 2.4 8.8 6.8 0.3 5.4 0.8 7.7 1.4 9h5v-0.2c-0.8-1.2-1.4-2.4-1.8-9.3-0.2-4.1-2.3-7-6.8-7.7zm-14.7-3v-13.6h9.8c5.4 0 8.1 2.3 8.1 6.8 0 4.6-2.7 6.8-8.1 6.8zm41.8-9.2c-8.7 0-13.6 5.7-13.6 15 0 9.4 5.3 15 14 15 6.2 0 9.8-2.4 12-6.3l-3.9-2c-1 2.8-3.9 4.3-8.1 4.3-5.3 0-8.8-3.4-9.4-9.2h21.8c0.1-0.8 0.2-1.9 0.2-3.2-0.1-7.6-4.7-13.6-13-13.6zm-9 12.6c0.7-5.4 3.9-8.6 9-8.6 4.9 0 7.9 3.3 8.5 8.6zm51.1 8.8c0 5-4.7 8.5-12.1 8.5-5.3 0-10.2-2.1-12.4-6.5l3.8-2.6c1.4 3.5 5 5.1 9.1 5.1 4.7 0 7-1.9 7-4.3 0-2.1-1.8-3.4-7.6-4.4-8.2-1.5-11.2-3.8-11.2-8.6 0-4.7 4.3-8.7 11.4-8.7 6.2 0 9.8 2.2 11.4 6.9l-3.9 2.3c-1.3-3.8-3.9-5.2-7.5-5.2-3.9 0-6.8 2.1-6.8 4.2 0 2.5 1.9 3.8 7.8 4.7 8.1 1.5 11 3.9 11 8.6zm19.3-21.4c-8.7 0-14 5.7-14 15 0 9.4 5.3 15 14 15s14-5.7 14-15c0-9.4-5.3-15-14-15zm0 26c-5.8 0-9.4-4.2-9.4-11 0-6.9 3.5-11 9.4-11s9.4 4.2 9.4 11-3.6 11-9.4 11zm41.9-25.5h4.6v28.9h-4l-0.3-4.4c-2 3.5-5.7 5-10.3 5-5.7 0-10.6-2.9-10.6-10.6v-18.9h4.6v17.7c0 5.9 2.7 7.7 6.8 7.7 4.9 0 9.2-2.9 9.2-9.7zm27.5-0.5c1 0 2.3 0.1 3.2 0.6l-0.9 4.5c-0.9-0.5-2.1-0.8-3.6-0.8-3.5 0-7.6 3.1-7.6 9.5v15.6h-4.6v-28.9h3.8l0.6 4.7c1.5-3.5 4.6-5.2 9.1-5.2zm27.7 20 4.3 1.5c-2 5.3-6.1 8.5-12.2 8.5-8.7 0-14-5.7-14-15 0-9.4 5.3-15 14-15 5.9 0 9.8 2.9 12 7.7l-4.4 2.1c-1.2-3.7-3.7-5.7-7.7-5.7-5.8 0-9.2 4.1-9.2 11s3.5 11 9.2 11c4.4-0.2 7.2-2.3 8-6.1zm22.8-20c-8.7 0-13.6 5.7-13.6 15 0 9.4 5.3 15 14 15 6.2 0 9.8-2.4 12-6.3l-3.9-2c-1 2.8-3.9 4.3-8.1 4.3-5.3 0-8.8-3.4-9.4-9.2h21.8c0.1-0.8 0.2-1.9 0.2-3.2 0-7.6-4.6-13.6-13-13.6zm-9 12.6c0.7-5.4 3.9-8.6 9-8.6 4.9 0 7.9 3.3 8.5 8.6zm56.6 7c0 6.2-5.8 10.4-14.3 10.4-8 0-13.7-3.3-15.8-9.1l2.5-2c1.6 5.5 6.5 8.4 13.3 8.4 6.5 0 11.3-2.7 11.3-7.6 0-4-2.9-6.2-11.5-7.7-10.7-1.8-14.3-4.7-14.3-10.5s5.3-10.9 13.9-10.9c7.1 0 12 2.8 14.4 8.4l-2.5 2c-2-5.5-5.6-7.8-11.8-7.8-6.9 0-10.9 3.5-10.9 7.9 0 4.2 2.8 6.4 12.1 7.9 10 1.9 13.6 4.9 13.6 10.6zm20.1-19.6c-5.2 0-9.1 2.7-10.7 7l-0.2-6.5h-2.6v41h2.9v-18.3c1.7 4.2 5.6 6.8 10.6 6.8 8.1 0 13.2-5.6 13.2-15s-5.1-15-13.2-15zm-0.3 27.4c-6.2 0-10.3-4.7-10.3-12.2v-0.6c0-7.6 4.1-12.2 10.3-12.2 6.7 0 10.7 4.7 10.7 12.5-0.1 7.8-4 12.5-10.7 12.5zm41.1-3v-14.9c0-6.4-4.2-9.6-10.7-9.6-5.7 0-9.8 2.5-11.4 7l2.2 1.6c1.6-4.2 4.7-6.1 9.2-6.1 5.1 0 7.9 2.8 7.9 7.4v2.5l-8.8 1.6c-7.5 1.3-11 4.3-11 8.7 0 4.8 3.9 7.3 9.4 7.3 4.1 0 8.6-1.7 10.5-4.9 0.3 3.9 2.4 4.9 4.7 4.9 1.2 0 2.2-0.2 2.8-0.6l0.2-2.3c-0.6 0.3-1.4 0.4-2.3 0.4-1.8 0.1-2.7-0.9-2.7-3zm-2.9-4.2c0 4.9-5.5 7.3-10.1 7.3-4.2 0-6.8-1.7-6.8-4.8 0-3.2 2.7-5.3 8.9-6.4l7.9-1.4v5.3zm33.3 0.4 2.7 0.9c-1.5 5.3-6.1 8.5-12 8.5-8.5 0-13.6-5.7-13.6-15 0-9.4 5.1-15 13.6-15 5.8 0 9.9 2.9 11.7 7.8l-2.7 1.3c-1.3-4.2-4.4-6.5-9.1-6.5-6.7 0-10.7 4.7-10.7 12.5s3.9 12.5 10.6 12.5c5-0.2 8.7-2.7 9.5-7zm33-6.3c0-8.4-4.6-14.3-12.6-14.3-8.4 0-13.3 5.7-13.3 15 0 9.4 5.1 15 13.6 15 5.8 0 9.7-2.5 11.8-6.6l-2.4-1.3c-1.4 3.4-4.9 5.3-9.4 5.3-6.4 0-10.3-4.2-10.7-11.3h22.9c0-0.4 0.1-1.1 0.1-1.8zm-23-0.7c0.4-7 4.2-11.1 10.4-11.1 6 0 9.5 4.2 9.9 11.1z"/>
</g>

</svg>
