<?xml version="1.0" encoding="UTF-8" standalone="no"?>
<!-- Generator: Adobe Illustrator 20.1.0, SVG Export Plug-In . SVG Version: 6.00 Build 0)  -->

<svg
   xmlns:dc="http://purl.org/dc/elements/1.1/"
   xmlns:cc="http://creativecommons.org/ns#"
   xmlns:rdf="http://www.w3.org/1999/02/22-rdf-syntax-ns#"
   xmlns:svg="http://www.w3.org/2000/svg"
   xmlns="http://www.w3.org/2000/svg"
   xmlns:sodipodi="http://sodipodi.sourceforge.net/DTD/sodipodi-0.dtd"
   xmlns:inkscape="http://www.inkscape.org/namespaces/inkscape"
   version="1.1"
   x="0px"
   y="0px"
   viewBox="0 0 518.70001 110"
   xml:space="preserve"
   id="svg2"
   inkscape:version="0.91 r13725"
   sodipodi:docname="title.svg"
   width="518.70001"
   height="110"><metadata
     id="metadata33"><rdf:RDF><cc:Work
         rdf:about=""><dc:format>image/svg+xml</dc:format><dc:type
           rdf:resource="http://purl.org/dc/dcmitype/StillImage" /><dc:title></dc:title></cc:Work></rdf:RDF></metadata><defs
     id="defs31" /><sodipodi:namedview
     pagecolor="#ffffff"
     bordercolor="#666666"
     borderopacity="1"
     objecttolerance="10"
     gridtolerance="10"
     guidetolerance="10"
     inkscape:pageopacity="0"
     inkscape:pageshadow="2"
     inkscape:window-width="640"
     inkscape:window-height="480"
     id="namedview29"
     showgrid="false"
     fit-margin-top="15"
     fit-margin-right="0"
     fit-margin-left="0"
     fit-margin-bottom="15"
     inkscape:zoom="0.49666667"
     inkscape:cx="259.6"
     inkscape:cy="55"
     inkscape:window-x="240"
     inkscape:window-y="142"
     inkscape:window-maximized="0"
     inkscape:current-layer="svg2" /><style
     type="text/css"
     id="style4">
	.st0{fill:#FFFFFF;}
	.st1{fill:#599D20;}
	.st2{fill:#4F8C1D;}
	.st3{fill:#68AA30;}
	.st4{fill:#79BC41;}
	.st5{display:none;}
	.st6{display:inline;fill:none;stroke:#00FFFF;stroke-miterlimit:10;}
	.st7{display:inline;fill:none;stroke:#BE272D;stroke-miterlimit:10;}
	.st8{display:inline;}
	.st9{fill:none;stroke:#BE272D;stroke-miterlimit:10;}
	.st10{fill:#BE272D;}
</style><g
     id="Backgrounds"
     transform="translate(-40.4,-25)" /><g
     id="Layer_1"
     transform="translate(-40.4,-25)"><path
       class="st0"
       d="m 178.8,83.1 0,-0.1 c 5.2,-1.3 8,-4.7 8,-9.6 0,-6.9 -5.1,-11.1 -12.9,-11.1 l -14.4,0 0,38.1 4.6,0 0,-15.9 8.1,0 c 5.9,0 8.6,2.4 8.8,6.8 0.3,5.4 0.8,7.7 1.4,9 l 5,0 0,-0.2 c -0.8,-1.2 -1.4,-2.4 -1.8,-9.3 -0.2,-4.1 -2.3,-7 -6.8,-7.7 z m -14.7,-3 0,-13.6 9.8,0 c 5.4,0 8.1,2.3 8.1,6.8 0,4.6 -2.7,6.8 -8.1,6.8 l -9.8,0 z m 41.8,-9.2 c -8.7,0 -13.6,5.7 -13.6,15 0,9.4 5.3,15 14,15 6.2,0 9.8,-2.4 12,-6.3 l -3.9,-2 c -1,2.8 -3.9,4.3 -8.1,4.3 -5.3,0 -8.8,-3.4 -9.4,-9.2 l 21.8,0 c 0.1,-0.8 0.2,-1.9 0.2,-3.2 -0.1,-7.6 -4.7,-13.6 -13,-13.6 z m -9,12.6 c 0.7,-5.4 3.9,-8.6 9,-8.6 4.9,0 7.9,3.3 8.5,8.6 l -17.5,0 z m 51.1,8.8 c 0,5 -4.7,8.5 -12.1,8.5 -5.3,0 -10.2,-2.1 -12.4,-6.5 l 3.8,-2.6 c 1.4,3.5 5,5.1 9.1,5.1 4.7,0 7,-1.9 7,-4.3 0,-2.1 -1.8,-3.4 -7.6,-4.4 -8.2,-1.5 -11.2,-3.8 -11.2,-8.6 0,-4.7 4.3,-8.7 11.4,-8.7 6.2,0 9.8,2.2 11.4,6.9 l -3.9,2.3 c -1.3,-3.8 -3.9,-5.2 -7.5,-5.2 -3.9,0 -6.8,2.1 -6.8,4.2 0,2.5 1.9,3.8 7.8,4.7 8.1,1.5 11,3.9 11,8.6 z m 19.3,-21.4 c -8.7,0 -14,5.7 -14,15 0,9.4 5.3,15 14,15 8.7,0 14,-5.7 14,-15 0,-9.4 -5.3,-15 -14,-15 z m 0,26 c -5.8,0 -9.4,-4.2 -9.4,-11 0,-6.9 3.5,-11 9.4,-11 5.9,0 9.4,4.2 9.4,11 0,6.8 -3.6,11 -9.4,11 z m 41.9,-25.5 4.6,0 0,28.9 -4,0 -0.3,-4.4 c -2,3.5 -5.7,5 -10.3,5 -5.7,0 -10.6,-2.9 -10.6,-10.6 l 0,-18.9 4.6,0 0,17.7 c 0,5.9 2.7,7.7 6.8,7.7 4.9,0 9.2,-2.9 9.2,-9.7 l 0,-15.7 z m 27.5,-0.5 c 1,0 2.3,0.1 3.2,0.6 L 339,76 c -0.9,-0.5 -2.1,-0.8 -3.6,-0.8 -3.5,0 -7.6,3.1 -7.6,9.5 l 0,15.6 -4.6,0 0,-28.9 3.8,0 0.6,4.7 c 1.5,-3.5 4.6,-5.2 9.1,-5.2 z m 27.7,20 4.3,1.5 c -2,5.3 -6.1,8.5 -12.2,8.5 -8.7,0 -14,-5.7 -14,-15 0,-9.4 5.3,-15 14,-15 5.9,0 9.8,2.9 12,7.7 l -4.4,2.1 C 362.9,77 360.4,75 356.4,75 c -5.8,0 -9.2,4.1 -9.2,11 0,6.9 3.5,11 9.2,11 4.4,-0.2 7.2,-2.3 8,-6.1 z m 22.8,-20 c -8.7,0 -13.6,5.7 -13.6,15 0,9.4 5.3,15 14,15 6.2,0 9.8,-2.4 12,-6.3 l -3.9,-2 c -1,2.8 -3.9,4.3 -8.1,4.3 -5.3,0 -8.8,-3.4 -9.4,-9.2 l 21.8,0 c 0.1,-0.8 0.2,-1.9 0.2,-3.2 0,-7.6 -4.6,-13.6 -13,-13.6 z m -9,12.6 c 0.7,-5.4 3.9,-8.6 9,-8.6 4.9,0 7.9,3.3 8.5,8.6 l -17.5,0 z m 56.6,7 c 0,6.2 -5.8,10.4 -14.3,10.4 -8,0 -13.7,-3.3 -15.8,-9.1 l 2.5,-2 c 1.6,5.5 6.5,8.4 13.3,8.4 6.5,0 11.3,-2.7 11.3,-7.6 0,-4 -2.9,-6.2 -11.5,-7.7 C 409.6,81.1 406,78.2 406,72.4 c 0,-5.8 5.3,-10.9 13.9,-10.9 7.1,0 12,2.8 14.4,8.4 l -2.5,2 c -2,-5.5 -5.6,-7.8 -11.8,-7.8 -6.9,0 -10.9,3.5 -10.9,7.9 0,4.2 2.8,6.4 12.1,7.9 10,1.9 13.6,4.9 13.6,10.6 z m 20.1,-19.6 c -5.2,0 -9.1,2.7 -10.7,7 l -0.2,-6.5 -2.6,0 0,41 2.9,0 0,-18.3 c 1.7,4.2 5.6,6.8 10.6,6.8 8.1,0 13.2,-5.6 13.2,-15 0,-9.4 -5.1,-15 -13.2,-15 z m -0.3,27.4 c -6.2,0 -10.3,-4.7 -10.3,-12.2 l 0,-0.6 c 0,-7.6 4.1,-12.2 10.3,-12.2 6.7,0 10.7,4.7 10.7,12.5 -0.1,7.8 -4,12.5 -10.7,12.5 z m 41.1,-3 0,-14.9 c 0,-6.4 -4.2,-9.6 -10.7,-9.6 -5.7,0 -9.8,2.5 -11.4,7 l 2.2,1.6 c 1.6,-4.2 4.7,-6.1 9.2,-6.1 5.1,0 7.9,2.8 7.9,7.4 l 0,2.5 -8.8,1.6 c -7.5,1.3 -11,4.3 -11,8.7 0,4.8 3.9,7.3 9.4,7.3 4.1,0 8.6,-1.7 10.5,-4.9 0.3,3.9 2.4,4.9 4.7,4.9 1.2,0 2.2,-0.2 2.8,-0.6 l 0.2,-2.3 c -0.6,0.3 -1.4,0.4 -2.3,0.4 -1.8,0.1 -2.7,-0.9 -2.7,-3 z m -2.9,-4.2 c 0,4.8 -5.5,7.3 -10.1,7.3 -4.2,0 -6.8,-1.7 -6.8,-4.8 0,-3.2 2.7,-5.3 8.9,-6.4 l 7.9,-1.4 0,5.3 z m 33.3,0.4 2.7,0.9 c -1.5,5.3 -6.1,8.5 -12,8.5 -8.5,0 -13.6,-5.7 -13.6,-15 0,-9.4 5.1,-15 13.6,-15 5.8,0 9.9,2.9 11.7,7.8 l -2.7,1.3 c -1.3,-4.2 -4.4,-6.5 -9.1,-6.5 -6.7,0 -10.7,4.7 -10.7,12.5 0,7.8 3.9,12.5 10.6,12.5 5,-0.2 8.7,-2.7 9.5,-7 z m 33,-6.3 c 0,-8.4 -4.6,-14.3 -12.6,-14.3 -8.4,0 -13.3,5.7 -13.3,15 0,9.4 5.1,15 13.6,15 5.8,0 9.7,-2.5 11.8,-6.6 L 556.2,93 c -1.4,3.4 -4.9,5.3 -9.4,5.3 -6.4,0 -10.3,-4.2 -10.7,-11.3 l 22.9,0 c 0,-0.4 0.1,-1.1 0.1,-1.8 z m -23,-0.7 c 0.4,-7 4.2,-11.1 10.4,-11.1 6,0 9.5,4.2 9.9,11.1 l -20.3,0 z"
       id="path8"
       inkscape:connector-curvature="0"
       style="fill:#ffffff" /><g
       id="g10"><polygon
         class="st1"
         points="60.2,97.1 60.2,74.3 60.3,74.4 80,85.7 80,108.6 "
         id="polygon12"
         style="fill:#599d20" /><polygon
         class="st2"
         points="40.4,85.7 40.4,62.9 40.5,62.9 60.2,74.3 60.2,97.1 "
         id="polygon14"
         style="fill:#4f8c1d" /><polygon
         class="st1"
         points="40.4,108.6 40.4,85.7 40.5,85.8 60.2,97.1 60.2,120 "
         id="polygon16"
         style="fill:#599d20" /><polygon
         class="st1"
         points="99.8,97.1 99.8,74.3 99.6,74.4 80,85.7 80,108.6 "
         id="polygon18"
         style="fill:#599d20" /><polygon
         class="st1"
         points="119.6,108.6 119.6,85.7 119.4,85.8 99.8,97.1 99.8,120 "
         id="polygon20"
         style="fill:#599d20" /><polygon
         class="st3"
         points="60.2,51.4 80,62.9 99.8,51.4 80,40 "
         id="polygon22"
         style="fill:#68aa30" /><polygon
         class="st4"
         points="40.4,62.9 60.2,74.3 80,62.9 60.2,51.4 "
         id="polygon24"
         style="fill:#79bc41" /><polygon
         class="st4"
         points="80,62.9 99.8,74.3 119.6,62.9 99.8,51.4 "
         id="polygon26"
         style="fill:#79bc41" /></g></g><g
     id="Guides"
     class="st5"
     style="display:none"
     transform="translate(-40.4,-25)" /></svg>