<svg xmlns="http://www.w3.org/2000/svg" width="16" height="16" viewBox="0 0 16 16"><defs><style>.bc22be2d-c4be-47d7-82ca-d232d2e2402a{fill:#79bc41;}.\33 f9791b1-b3f5-4310-84ba-c5ae04637511{fill:#599d20;}.bdcdf120-3f4c-4488-b44f-fe897dc81083{fill:#4f8c1d;}.b220baae-d075-469a-be38-932e794abbf1{fill:#68aa30;}</style></defs><title>favicon</title><g id="9a883c2b-c69c-4b54-9cb9-f69d6186fdf9" data-name="Layer 1"><path class="bc22be2d-c4be-47d7-82ca-d232d2e2402a" d="M12,6.9,8,9.1,4,6.9H4L8,4.6l4,2.3,4-2.3L12,2.3,8,0,4,2.3,0,4.6H0V9.1H0v4.6L3.9,16V11.4L8,13.7l4-2.3V6.9Zm-8,4.5"/><polygon class="3f9791b1-b3f5-4310-84ba-c5ae04637511" points="4 6.9 4 6.9 8 9.1 8 13.7 4 11.4 4 6.9"/><polygon class="bdcdf120-3f4c-4488-b44f-fe897dc81083" points="0 4.6 0 4.6 4 6.9 4 11.4 0 9.1 0 4.6"/><polygon class="3f9791b1-b3f5-4310-84ba-c5ae04637511" points="0 9.1 0 9.2 3.9 11.4 3.9 16 0 13.7 0 9.1"/><polygon class="3f9791b1-b3f5-4310-84ba-c5ae04637511" points="12 6.9 12 6.9 8 9.1 8 13.7 12 11.4 12 6.9"/><polygon class="3f9791b1-b3f5-4310-84ba-c5ae04637511" points="16 9.1 16 9.2 12.2 11.4 12.2 16 16 13.7 16 9.1"/><polygon class="b220baae-d075-469a-be38-932e794abbf1" points="8 0 4 2.3 8 4.6 12 2.3 8 0"/><polygon class="bc22be2d-c4be-47d7-82ca-d232d2e2402a" points="4 2.3 0 4.6 4 6.9 8 4.6 4 2.3"/><polygon class="bc22be2d-c4be-47d7-82ca-d232d2e2402a" points="12 2.3 8 4.6 12 6.9 16 4.6 12 2.3"/></g></svg>