<?xml version="1.0" encoding="UTF-8"?>
<svg width="512" height="512" version="1.1" viewBox="0 0 512 512" xml:space="preserve" xmlns="http://www.w3.org/2000/svg">
   <style type="text/css">
      .st0{fill:#FFFFFF;}
      .st1{fill:#599D20;}
      .st2{fill:#4F8C1D;}
      .st3{fill:#68AA30;}
      .st4{fill:#79BC41;}
      .st5{display:none;}
      .st6{display:inline;fill:none;stroke:#00FFFF;stroke-miterlimit:10;}
      .st7{display:inline;fill:none;stroke:#BE272D;stroke-miterlimit:10;}
      .st8{display:inline;}
      .st9{fill:none;stroke:#BE272D;stroke-miterlimit:10;}
      .st10{fill:#BE272D;}
   </style>

   <g transform="matrix(5.2558 0 0 5.2558 -164.46 -164.46)">
      <polygon class="st1" points="60.3 74.4 80 85.7 80 108.6 60.2 97.1 60.2 74.3"/>
      <polygon class="st2" points="40.5 62.9 60.2 74.3 60.2 97.1 40.4 85.7 40.4 62.9"/>
      <polygon class="st1" points="40.5 85.8 60.2 97.1 60.2 120 40.4 108.6 40.4 85.7"/>
      <polygon class="st1" points="99.6 74.4 80 85.7 80 108.6 99.8 97.1 99.8 74.3"/>
      <polygon class="st1" points="119.4 85.8 99.8 97.1 99.8 120 119.6 108.6 119.6 85.7"/>
      <polygon class="st3" points="80 62.9 99.8 51.4 80 40 60.2 51.4"/>
      <polygon class="st4" points="60.2 74.3 80 62.9 60.2 51.4 40.4 62.9"/>
      <polygon class="st4" points="99.8 74.3 119.6 62.9 99.8 51.4 80 62.9"/>
   </g>
</svg>
